<?xml version="1.0" standalone="no"?>
<!DOCTYPE svg PUBLIC "-//W3C//DTD SVG 20010904//EN"
 "http://www.w3.org/TR/2001/REC-SVG-20010904/DTD/svg10.dtd">
<svg version="1.0" xmlns="http://www.w3.org/2000/svg"
 width="678.000000pt" height="784.000000pt" viewBox="0 0 678.000000 784.000000"
 preserveAspectRatio="xMidYMid meet">

<g transform="translate(0.000000,784.000000) scale(0.100000,-0.100000)"
fill="#000000" stroke="none">
<path d="M5900 7708 c-23 -73 -48 -149 -55 -168 -8 -19 -24 -66 -35 -105 -12
-38 -26 -78 -31 -88 -5 -9 -20 -46 -33 -81 -28 -74 -103 -229 -146 -301 -17
-27 -46 -79 -66 -115 -20 -36 -45 -77 -55 -92 -11 -15 -19 -30 -19 -34 0 -4
-16 -29 -35 -55 -19 -27 -35 -54 -35 -61 0 -6 -7 -18 -16 -27 -8 -9 -47 -70
-86 -136 -39 -66 -86 -138 -105 -159 -18 -22 -33 -46 -33 -53 0 -7 -4 -13 -10
-13 -5 0 -17 -15 -26 -32 -10 -18 -39 -62 -66 -97 -26 -35 -48 -70 -48 -77 0
-8 -3 -14 -7 -14 -9 0 -133 -154 -133 -165 0 -8 -34 -47 -62 -71 -7 -6 -39
-43 -71 -82 -55 -66 -99 -93 -113 -70 -4 5 -11 -1 -18 -13 -12 -26 -76 -45
-87 -27 -4 7 -8 6 -11 -2 -2 -7 -13 -4 -31 10 -16 13 -34 19 -44 16 -13 -5
-14 -4 -4 8 9 11 7 15 -9 19 -11 3 -18 1 -14 -4 6 -10 -14 -11 -36 -1 -17 8
-26 62 -11 62 5 0 11 -6 14 -12 3 -9 9 -7 19 6 14 18 15 17 21 -13 4 -17 11
-31 17 -31 7 0 7 6 1 18 -5 9 -14 31 -21 47 -10 28 -14 30 -45 27 -20 -2 -35
0 -35 6 0 6 -8 8 -18 5 -12 -3 -24 4 -36 21 -9 14 -34 35 -56 46 -38 20 -52
44 -29 52 6 2 -5 21 -25 43 -20 21 -36 48 -37 59 0 21 0 21 -9 1 -5 -11 -9
-16 -9 -11 -1 5 -8 3 -16 -4 -23 -19 -47 -5 -39 24 4 16 0 34 -10 48 -9 12
-16 39 -16 60 0 28 -5 38 -20 43 -19 6 -21 14 -25 82 0 12 -8 30 -16 40 -8 10
-21 31 -29 46 -11 23 -15 25 -22 12 -10 -17 -44 -20 -53 -5 -4 6 -2 17 4 24
13 16 5 42 -15 50 -8 3 -14 14 -14 24 0 10 -5 23 -11 29 -8 8 -8 17 0 32 10
18 9 21 -8 21 -20 0 -28 17 -32 65 -2 36 1 45 17 45 14 0 15 9 11 61 -6 62
-29 116 -74 176 -21 27 -28 31 -35 20 -8 -16 -16 -50 -17 -79 -1 -11 -9 -18
-19 -18 -13 0 -22 12 -31 40 -7 22 -21 46 -31 53 -11 6 -20 17 -20 24 0 7 -12
25 -26 40 -15 15 -32 37 -39 48 -14 20 -39 123 -57 230 -6 33 -17 83 -25 110
-14 51 -21 80 -22 103 -2 24 -21 11 -29 -20 l-9 -33 -12 28 c-6 16 -11 52 -12
80 0 29 -4 61 -8 71 -8 20 -26 -94 -34 -212 -5 -63 -32 -102 -55 -78 -10 10
-14 39 -14 107 0 61 -4 102 -14 121 -8 15 -14 42 -14 61 0 19 -6 49 -12 68
l-13 34 -9 -50 c-13 -66 -11 -481 3 -570 16 -104 17 -111 25 -124 4 -6 9 -61
11 -120 3 -87 1 -112 -10 -121 -8 -7 -15 -21 -15 -31 0 -10 -5 -21 -11 -25 -8
-4 -3 -12 14 -20 29 -16 52 -77 63 -164 6 -51 18 -88 33 -100 13 -11 31 -51
31 -69 0 -11 12 -29 26 -40 15 -12 32 -31 38 -44 13 -24 10 -57 -5 -57 -5 0
-2 -11 7 -25 8 -13 13 -28 10 -33 -6 -10 30 -25 52 -22 23 2 42 -21 42 -54 0
-18 9 -49 20 -71 34 -67 37 -66 -132 -59 -340 14 -734 -45 -1068 -161 -652
-227 -1194 -666 -1549 -1255 -57 -95 -166 -309 -187 -370 -6 -15 -11 182 -14
511 l-5 536 -200 -163 c-110 -90 -201 -167 -202 -171 -2 -5 22 -40 52 -79 31
-38 68 -89 83 -114 l27 -45 2 -525 3 -525 -55 -34 c-30 -19 -73 -54 -96 -77
l-41 -42 57 29 c48 24 70 29 133 29 l74 0 -5 -27 c-3 -16 -12 -105 -18 -199
-18 -238 2 -505 56 -769 6 -28 3 -33 -43 -63 -58 -38 -62 -38 -62 -12 0 11 -3
20 -7 20 -5 0 -49 -31 -100 -68 l-92 -68 34 -49 34 -50 3 -148 c3 -126 1 -148
-13 -152 -20 -7 -84 -73 -77 -80 3 -3 18 -1 34 5 23 9 55 7 150 -10 145 -26
198 -19 288 35 l55 33 56 -105 c265 -500 680 -919 1180 -1191 1049 -569 2331
-455 3265 289 132 105 332 304 434 431 l77 96 66 -30 c84 -40 186 -49 261 -24
58 20 126 65 143 97 9 18 4 16 -27 -9 -73 -58 -154 -77 -248 -56 -34 7 -142
59 -149 72 -3 4 24 52 59 107 138 213 229 405 316 669 63 194 85 233 181 323
76 72 145 105 232 111 65 4 73 2 102 -22 36 -31 50 -77 34 -118 -15 -40 10
-26 45 24 20 29 29 55 32 97 4 53 2 61 -25 91 -87 97 -320 13 -474 -172 -45
-54 -51 -58 -45 -33 17 84 37 236 47 365 40 503 -85 1076 -333 1527 -40 72
-59 96 -85 108 -19 9 -32 19 -30 22 3 2 14 0 24 -5 10 -5 24 -7 31 -5 7 3 23
-2 35 -10 13 -8 51 -23 85 -32 34 -10 62 -21 62 -26 0 -13 66 -22 95 -12 l25
8 -34 36 -35 36 64 13 c66 14 74 23 31 34 -42 10 -94 50 -105 79 -7 18 -17 27
-31 27 -12 0 -59 17 -104 39 -44 21 -99 44 -121 52 -50 16 -69 33 -62 53 5 12
17 15 54 11 89 -9 79 10 -24 44 -160 52 -183 62 -183 77 0 9 -11 14 -35 14
-19 0 -35 5 -35 11 0 18 44 48 71 49 54 0 118 13 113 22 -3 5 -12 7 -20 4 -7
-3 -16 -1 -19 5 -4 5 -12 9 -18 8 -31 -5 -46 12 -40 48 5 29 3 35 -8 28 -12
-8 -12 -6 0 8 15 18 26 23 16 7 -3 -5 -2 -10 4 -10 11 0 24 18 27 38 1 6 -2
12 -7 12 -5 0 -9 -5 -9 -12 0 -9 -3 -9 -12 0 -22 22 -87 14 -120 -13 -24 -20
-37 -25 -59 -20 -46 10 -127 67 -140 98 -11 25 -9 31 15 56 14 15 26 32 26 39
0 7 7 12 15 12 10 0 15 10 15 29 0 25 5 31 30 36 17 4 30 13 30 21 0 8 8 18
18 21 9 4 23 13 30 20 7 6 19 10 27 7 10 -4 12 0 8 17 -6 20 -4 21 30 15 29
-5 40 -3 59 17 13 13 29 35 37 50 8 15 18 27 23 27 4 0 8 6 8 14 0 22 -37 26
-87 9 -36 -12 -50 -13 -65 -4 -19 12 -94 5 -104 -10 -3 -5 -12 -9 -20 -9 -24
0 -16 28 14 47 15 10 37 29 49 43 48 54 57 60 106 83 20 10 37 21 37 26 0 4
15 12 34 18 28 9 36 8 40 -4 5 -12 8 -12 27 0 21 15 59 12 59 -4 0 -14 24 -6
38 14 7 9 19 17 27 17 7 0 15 10 17 23 2 17 9 22 31 20 34 -2 36 13 2 21 -25
7 -34 30 -14 41 20 13 61 12 65 0 6 -16 44 -7 44 10 0 7 7 18 15 25 8 7 12 16
10 21 -3 4 7 16 22 26 36 23 40 28 47 74 4 28 11 39 24 40 11 0 12 2 4 6 -10
4 -10 8 -1 19 9 12 6 12 -22 3 -19 -7 -40 -19 -46 -27 -7 -9 -13 -13 -13 -9 0
5 -30 -13 -67 -39 -89 -62 -118 -84 -107 -84 4 0 -7 -11 -26 -25 -19 -14 -41
-25 -49 -25 -8 0 -12 -3 -8 -6 3 -3 -3 -15 -13 -27 -11 -11 -17 -23 -15 -27 8
-14 -53 -48 -108 -61 -30 -7 -55 -16 -55 -19 2 -19 -4 -30 -16 -30 -8 0 -16
-7 -20 -15 -3 -8 -11 -15 -19 -15 -7 0 -29 -16 -48 -36 -33 -34 -140 -104
-160 -104 -5 0 -9 8 -9 19 0 19 58 74 70 66 3 -2 30 18 60 46 29 27 56 49 60
49 13 0 89 81 87 93 -1 6 16 16 39 22 26 6 39 15 36 23 -6 18 18 43 38 40 9
-2 24 3 33 10 15 12 14 16 -8 37 -14 12 -25 27 -25 32 0 16 38 45 49 38 6 -3
21 -3 32 0 15 5 18 10 10 18 -6 6 -11 14 -11 18 0 14 67 49 94 49 14 0 35 5
46 12 18 12 18 13 2 31 -16 18 -15 20 13 43 17 13 38 30 48 39 9 8 21 15 26
15 5 0 7 9 4 20 -7 28 24 38 43 14 11 -14 17 -16 21 -6 2 7 11 19 20 27 8 8
10 15 5 15 -5 0 -14 10 -19 23 -8 18 -8 26 3 33 12 8 12 13 -1 38 -17 32 -11
71 15 101 10 11 26 45 35 75 10 30 22 64 27 75 7 15 4 14 -12 -5 -51 -62 -59
-70 -73 -70 -23 0 -29 46 -11 87 12 29 16 67 15 151 0 104 2 118 24 158 14 25
25 58 25 75 0 16 7 41 16 54 14 21 14 30 4 55 -11 26 -10 33 4 49 18 20 21 62
5 78 -7 7 -8 17 -1 29 16 30 26 128 13 120 -6 -4 -11 -12 -11 -18 0 -19 -71
-107 -92 -114 -40 -12 -44 22 -12 94 8 18 12 37 9 43 -4 5 -2 15 3 22 14 18
41 105 35 111 -4 3 1 32 10 63 8 32 20 77 27 100 6 23 17 48 25 56 18 19 8 59
-14 55 -9 -2 -25 -22 -36 -46 -15 -33 -25 -42 -41 -40 -12 2 -28 -3 -37 -10
-14 -12 -15 -10 -10 25 3 21 10 42 14 48 15 16 10 25 -15 25 -21 0 -27 -12
-66 -132z m10 -664 c0 -8 -5 -12 -10 -9 -6 4 -8 11 -5 16 9 14 15 11 15 -7z
m-60 -161 c-1 -14 -27 -43 -38 -43 -6 0 -12 -6 -15 -12 -3 -10 -7 -10 -17 -1
-19 17 -4 43 25 43 14 0 25 5 25 10 0 6 5 10 10 10 6 0 10 -3 10 -7z m20 -107
c0 -17 -14 -29 -23 -20 -8 8 3 34 14 34 5 0 9 -6 9 -14z m-70 -28 c0 -19 -70
-89 -81 -83 -18 12 -9 35 20 49 16 9 31 22 34 31 8 18 27 20 27 3z m-110 -176
c0 -5 -6 -16 -13 -27 -16 -20 -33 -5 -23 20 6 16 36 21 36 7z m284 -47 c-4 -8
-11 -15 -16 -15 -6 0 -5 6 2 15 7 8 14 15 16 15 2 0 1 -7 -2 -15z m-314 -14
c0 -17 -46 -76 -60 -76 -9 0 -16 12 -18 28 -3 22 1 27 18 27 11 0 23 7 26 15
6 16 34 21 34 6z m-2172 -761 l104 -9 38 -43 c21 -24 49 -50 64 -57 14 -8 30
-29 37 -48 6 -19 37 -59 70 -91 32 -30 59 -64 59 -74 0 -12 8 -18 25 -18 14 0
29 -8 35 -19 5 -11 18 -22 28 -25 10 -4 26 -23 36 -43 17 -36 17 -38 0 -50
-10 -8 -35 -16 -56 -19 -47 -8 -99 -39 -105 -65 -3 -10 -8 -19 -12 -19 -21 0
-91 -75 -102 -108 -7 -20 -27 -59 -46 -87 -18 -27 -33 -59 -33 -70 0 -11 -8
-43 -18 -71 -18 -48 -16 -84 5 -97 5 -3 21 15 35 41 28 50 34 53 202 133 l88
42 72 -32 c105 -46 286 -92 411 -105 34 -3 86 -25 97 -41 4 -5 8 -26 8 -45 1
-19 7 -57 14 -85 18 -64 15 -66 -105 -111 -95 -36 -144 -68 -132 -88 4 -6 7
-42 6 -81 -1 -39 4 -76 11 -84 6 -8 10 -44 9 -89 -3 -91 16 -139 47 -122 24
13 25 29 5 56 -15 20 -20 44 -7 44 4 0 21 -12 39 -27 30 -25 83 -38 83 -21 0
4 -10 16 -22 27 -25 24 -27 79 -4 126 8 17 21 45 28 62 17 38 112 110 158 119
17 4 33 11 36 16 6 9 68 1 95 -13 10 -5 37 -3 67 6 28 9 55 14 59 13 14 -5 61
37 64 58 3 11 14 20 29 22 14 2 30 8 35 12 6 5 38 9 72 8 55 -1 68 -5 115 -39
76 -55 124 -79 203 -100 78 -21 115 -24 115 -10 0 6 -11 16 -24 23 -41 23
-148 93 -161 106 -8 6 -20 12 -28 12 -21 0 -42 29 -31 40 7 7 17 4 30 -8 11
-10 35 -22 54 -26 19 -3 53 -15 75 -25 88 -40 113 -51 122 -51 30 0 98 -47
128 -88 53 -72 196 -362 247 -502 46 -123 98 -296 98 -322 0 -7 -36 46 -80
117 -44 72 -82 130 -85 130 -2 0 -36 -25 -75 -55 l-71 -55 42 -12 c43 -13 79
-38 79 -56 0 -6 -3 -8 -6 -4 -9 9 -67 -14 -92 -37 -100 -90 -45 -246 86 -246
49 0 74 11 115 49 l29 26 18 -23 c10 -12 20 -28 23 -35 3 -8 12 -5 29 11 l25
23 12 -77 c55 -373 26 -783 -81 -1134 -24 -80 -179 -403 -188 -393 -4 5 -46
109 -94 233 -49 124 -91 228 -95 232 -7 8 -151 -118 -151 -133 0 -5 7 -9 15
-9 26 0 86 -62 116 -121 16 -32 44 -104 63 -161 56 -166 75 -204 91 -178 3 5
15 15 26 21 20 10 20 10 -1 -30 -45 -88 -171 -291 -181 -291 -18 0 -159 165
-221 258 -66 99 -168 292 -168 318 0 6 16 14 36 17 117 19 173 162 105 269
-57 90 -137 90 -313 0 -5 -2 -8 3 -8 12 0 8 -4 18 -10 21 -10 6 -180 -114
-180 -127 0 -4 14 -29 30 -55 l30 -47 0 -188 c0 -103 2 -188 5 -188 3 0 30 19
60 41 l55 41 0 182 c0 162 2 184 20 213 24 39 58 62 101 69 66 10 138 -64 124
-126 -8 -36 -25 -50 -67 -57 -31 -4 -97 -42 -117 -67 -6 -7 30 -72 106 -191
139 -219 200 -299 293 -389 39 -38 69 -74 67 -80 -10 -26 -137 -177 -227 -270
-445 -460 -1054 -761 -1725 -852 -178 -24 -512 -24 -690 0 -340 46 -656 142
-946 287 -559 279 -991 706 -1265 1252 l-45 88 27 56 c39 79 45 193 15 281
-40 119 -100 180 -185 192 -40 5 -41 6 -53 60 -62 272 -77 656 -37 912 l7 40
49 -6 c115 -16 202 -55 774 -352 294 -153 519 -214 681 -185 85 15 209 65 286
115 32 21 57 39 55 41 -2 2 -32 -3 -68 -12 -139 -32 -363 9 -575 107 -44 20
-177 91 -295 157 -320 178 -400 220 -476 249 -71 27 -196 58 -276 69 l-48 6 0
134 c0 133 0 135 42 247 93 249 270 560 444 778 91 114 297 319 414 412 423
337 936 554 1470 622 208 27 385 32 558 16z m1672 -269 c0 -14 -18 -23 -30
-16 -6 4 -8 11 -5 16 8 12 35 12 35 0z m335 -421 c-3 -5 -11 -10 -16 -10 -6 0
-7 5 -4 10 3 6 11 10 16 10 6 0 7 -4 4 -10z m-695 -479 c0 -10 -24 -21 -43
-21 -7 0 -3 7 7 15 22 17 36 19 36 6z m-161 -30 c9 -16 6 -21 -17 -30 -54 -21
-82 -24 -82 -9 0 8 11 20 25 26 14 6 25 16 25 22 0 18 39 11 49 -9z m-169
-101 c13 -9 12 -12 -5 -26 -22 -17 -68 -13 -93 8 -13 11 -11 14 9 19 36 10 72
10 89 -1z m-40 -124 c0 -37 -21 -62 -46 -52 -12 5 -14 13 -9 34 15 59 55 73
55 18z m1481 -742 c33 -16 61 -68 51 -93 -17 -46 -80 -54 -117 -16 -42 41 -27
125 21 125 8 0 29 -7 45 -16z m-5465 -1342 c6 -4 26 -54 44 -112 17 -58 50
-150 72 -205 l40 -100 -25 -21 c-44 -38 -139 -39 -229 -3 l-28 11 0 173 c0
161 1 174 22 200 19 24 75 65 88 65 3 0 10 -4 16 -8z m134 -87 c47 -69 60
-108 60 -182 -1 -65 -1 -67 -14 -37 -33 76 -95 264 -86 264 5 0 23 -20 40 -45z"/>
<path d="M3464 4179 c-17 -5 -68 -40 -113 -79 -44 -38 -83 -70 -86 -70 -3 0
-34 22 -69 49 -86 65 -140 85 -214 78 -110 -9 -195 -78 -257 -209 -74 -154
-80 -261 -25 -470 44 -169 81 -248 117 -248 8 0 48 27 89 61 68 56 88 79 65
79 -5 0 -28 19 -51 41 -49 48 -103 156 -126 256 -19 82 -14 229 10 284 17 42
66 86 102 95 73 18 168 -30 223 -112 l31 -47 1 -171 c1 -94 0 -182 -1 -195 -2
-28 -3 -28 102 48 l77 56 1 153 c0 163 9 203 53 250 100 108 207 36 267 -179
28 -101 28 -265 1 -371 -25 -96 -51 -147 -104 -206 -49 -53 -37 -48 50 20 165
130 237 363 187 606 -45 223 -169 328 -330 281z"/>
<path d="M4010 3844 c-149 -65 -201 -286 -94 -404 44 -48 88 -63 170 -58 52 3
70 9 101 34 75 61 113 167 93 261 -14 64 -60 137 -102 163 -40 24 -117 26
-168 4z m126 -89 c69 -73 94 -203 51 -266 -19 -29 -29 -34 -67 -37 -59 -4 -82
3 -115 35 -81 81 -88 235 -13 287 12 9 42 16 67 16 37 0 49 -5 77 -35z"/>
<path d="M4568 3836 c-21 -8 -49 -21 -63 -30 -22 -14 -25 -15 -25 -1 0 8 -5
15 -11 15 -15 0 -128 -83 -129 -94 0 -5 9 -23 19 -40 17 -27 20 -53 22 -169 1
-75 6 -137 11 -137 5 0 25 12 44 28 l34 27 0 128 c0 143 10 176 60 202 40 21
54 19 89 -11 51 -42 35 -114 -25 -114 -13 0 -37 -12 -54 -27 l-31 -28 84 -131
c106 -165 161 -237 233 -303 157 -143 325 -156 429 -31 19 23 18 22 -16 -3
-47 -35 -105 -54 -154 -50 -134 11 -303 178 -426 420 l-50 97 51 23 c39 17 54
30 65 57 29 70 8 143 -50 170 -40 19 -58 19 -107 2z"/>
<path d="M5463 3837 c-18 -7 -40 -20 -49 -29 -16 -16 -18 -16 -29 -1 -11 15
-19 11 -78 -32 l-65 -48 23 -36 c21 -31 25 -49 26 -134 l2 -98 -31 -29 c-39
-35 -40 -44 -6 -36 14 4 53 1 87 -5 101 -19 110 -19 163 -4 56 16 121 71 149
126 51 99 10 274 -76 320 -30 16 -81 18 -116 6z m75 -97 c87 -79 96 -242 16
-279 -50 -23 -164 -6 -164 25 -1 8 -1 57 -1 109 0 52 0 102 1 110 0 9 11 27
25 40 34 35 81 33 123 -5z"/>
<path d="M1902 3782 l-72 -57 41 -12 c43 -13 79 -38 79 -56 0 -6 -3 -8 -6 -4
-9 9 -67 -14 -92 -37 -100 -90 -45 -246 86 -246 50 0 75 11 118 51 l31 30 19
-36 c10 -19 21 -35 24 -35 3 0 23 18 44 39 l39 40 -98 158 c-54 87 -108 172
-119 190 l-22 32 -72 -57z m88 -197 c75 -39 65 -134 -13 -135 -60 0 -103 93
-61 134 19 20 37 20 74 1z"/>
<path d="M4882 3782 l-71 -57 43 -12 c23 -7 50 -21 60 -32 17 -18 16 -19 -21
-31 -163 -52 -143 -280 25 -280 49 0 74 11 115 49 l29 26 18 -23 c10 -12 20
-28 23 -35 3 -7 20 3 46 28 23 22 39 45 36 52 -4 12 -191 314 -219 355 -11 15
-20 10 -84 -40z m81 -193 c55 -28 78 -107 38 -129 -58 -30 -121 11 -121 79 0
55 34 75 83 50z"/>
<path d="M3140 2784 c-245 -46 -451 -256 -506 -514 -23 -107 -15 -319 16 -415
48 -152 151 -280 266 -331 82 -36 196 -51 276 -36 151 28 362 173 414 287 35
73 30 80 -26 36 -103 -81 -225 -119 -353 -108 -177 15 -346 166 -407 366 -56
180 2 410 127 500 58 43 104 54 208 49 80 -3 98 -7 134 -31 56 -37 70 -63 95
-168 l21 -91 101 78 c56 44 121 97 145 118 l43 40 -74 68 c-49 45 -104 83
-159 111 -82 41 -87 42 -190 44 -58 1 -117 -1 -131 -3z"/>
<path d="M1510 2314 c-101 -85 -96 -76 -61 -124 l31 -43 0 -196 0 -196 -35
-28 c-40 -32 -52 -70 -13 -43 53 37 164 9 368 -95 134 -68 218 -99 270 -99 52
0 121 26 161 60 l34 30 -30 -7 c-95 -24 -189 2 -374 103 -113 62 -215 104
-253 104 -17 0 -18 15 -18 295 0 162 -3 295 -7 295 -5 -1 -37 -26 -73 -56z"/>
<path d="M3945 2323 c-10 -16 -36 -46 -58 -68 -107 -107 -146 -315 -86 -454
22 -53 96 -130 126 -132 10 -1 29 -3 43 -4 33 -4 86 19 132 55 l36 30 7 -30 7
-30 43 37 44 38 1 263 c0 144 -3 262 -6 262 -4 0 -39 -26 -77 -57 -39 -32 -75
-61 -79 -64 -5 -3 7 -29 27 -58 34 -52 35 -55 35 -153 0 -149 -32 -198 -129
-198 -86 0 -138 85 -148 243 -5 78 -3 97 23 175 28 87 66 142 98 142 9 0 16 7
16 15 0 25 -37 17 -55 -12z"/>
<path d="M992 2320 c-121 -54 -227 -247 -207 -378 23 -152 119 -265 234 -277
123 -12 270 90 288 199 7 44 0 45 -33 7 -14 -17 -50 -42 -80 -57 -66 -32 -119
-29 -195 12 -56 31 -82 64 -77 102 3 24 7 27 50 28 48 2 82 20 127 68 l24 26
-106 0 -107 0 0 45 c0 158 180 212 250 75 l21 -40 54 57 c30 32 54 63 55 68 0
6 -25 27 -56 48 -53 34 -62 37 -128 36 -47 0 -86 -7 -114 -19z"/>
<path d="M4526 2295 c-79 -28 -166 -122 -201 -218 -28 -74 -25 -179 7 -249 61
-133 163 -188 284 -153 96 28 171 101 182 178 l5 42 -33 -33 c-70 -71 -163
-91 -245 -53 -50 22 -97 76 -93 105 2 17 12 22 55 27 52 7 93 30 120 69 14 19
12 20 -81 20 l-96 0 0 56 c0 52 3 59 40 96 38 38 43 40 86 35 49 -5 85 -32
111 -82 l16 -29 55 59 55 59 -29 24 c-71 59 -157 76 -238 47z"/>
<path d="M6168 6755 c-20 -27 -22 -35 -8 -35 6 0 10 6 10 14 0 8 5 16 12 18 6
2 9 9 7 15 -2 6 -12 1 -21 -12z"/>
<path d="M6110 6679 c0 -5 5 -7 10 -4 6 3 10 8 10 11 0 2 -4 4 -10 4 -5 0 -10
-5 -10 -11z"/>
<path d="M4094 6502 c-22 -15 -51 -127 -35 -136 5 -3 8 -32 7 -64 l-1 -57 32
3 c28 4 33 1 38 -24 4 -16 7 -32 8 -36 1 -4 11 0 22 8 16 12 20 25 18 67 -3
64 -6 76 -21 104 -7 12 -9 29 -6 37 4 9 1 16 -6 16 -7 0 -10 8 -8 18 6 22 -33
74 -48 64z"/>
<path d="M6050 6379 c0 -5 5 -7 10 -4 6 3 10 8 10 11 0 2 -4 4 -10 4 -5 0 -10
-5 -10 -11z"/>
<path d="M4381 5871 c-11 -7 -9 -10 8 -16 25 -8 36 -2 26 14 -8 13 -15 14 -34
2z"/>
<path d="M4342 5851 c-17 -10 -3 -51 19 -51 11 0 19 -4 19 -10 0 -16 17 -12
24 6 3 8 2 13 -3 9 -17 -10 -43 7 -38 26 6 22 -4 31 -21 20z"/>
<path d="M6322 2315 c-77 -24 -156 -97 -199 -185 -24 -48 -27 -67 -27 -150 0
-78 4 -104 23 -147 26 -58 84 -117 140 -140 57 -25 176 -22 228 5 57 30 108
84 141 151 24 50 27 67 27 156 0 90 -3 106 -29 159 -71 144 -170 193 -304 151z
m116 -102 c42 -31 90 -109 113 -185 46 -151 -10 -268 -129 -268 -57 0 -99 19
-144 66 -149 156 -93 426 85 411 27 -2 61 -13 75 -24z"/>
</g>
</svg>
